<?xml version="1.0" encoding="UTF-8" standalone="no"?>
<svg
   xmlns:dc="http://purl.org/dc/elements/1.1/"
   xmlns:cc="http://creativecommons.org/ns#"
   xmlns:rdf="http://www.w3.org/1999/02/22-rdf-syntax-ns#"
   xmlns:svg="http://www.w3.org/2000/svg"
   xmlns="http://www.w3.org/2000/svg"
   xmlns:sodipodi="http://sodipodi.sourceforge.net/DTD/sodipodi-0.dtd"
   xmlns:inkscape="http://www.inkscape.org/namespaces/inkscape"
   version="1.1"
   id="svg2"
   width="384"
   height="384"
   viewBox="0 0 384 384"
   sodipodi:docname="logo.svg"
   inkscape:version="1.0.2 (e86c870879, 2021-01-15)">
  <metadata
     id="metadata8">
    <rdf:RDF>
      <cc:Work
         rdf:about="">
        <dc:format>image/svg+xml</dc:format>
        <dc:type
           rdf:resource="http://purl.org/dc/dcmitype/StillImage" />
      </cc:Work>
    </rdf:RDF>
  </metadata>
  <defs
     id="defs6" />
  <sodipodi:namedview
     pagecolor="#ffffff"
     bordercolor="#666666"
     borderopacity="1"
     objecttolerance="10"
     gridtolerance="10"
     guidetolerance="10"
     inkscape:pageopacity="0"
     inkscape:pageshadow="2"
     inkscape:window-width="2560"
     inkscape:window-height="1403"
     id="namedview4"
     showgrid="false"
     inkscape:zoom="1.4166667"
     inkscape:cx="192"
     inkscape:cy="192"
     inkscape:window-x="1366"
     inkscape:window-y="0"
     inkscape:window-maximized="1"
     inkscape:current-layer="g10" />
  <g
     inkscape:groupmode="layer"
     inkscape:label="Image"
     id="g10">
    <path
       style="fill:#000000;stroke-width:0.32"
       d="m 186.36946,374.4718 c -0.89144,-0.16669 -2.24723,-1.47853 -2.24723,-2.1744 0,-0.25123 -0.27207,-1.35984 -0.60461,-2.46352 -1.36504,-4.53062 -1.65984,-7.06384 -0.95362,-8.19469 0.28079,-0.44963 0.239,-0.83798 -0.18672,-1.73513 -0.35444,-0.74692 -0.54604,-1.92727 -0.54156,-3.33636 0.004,-1.19929 0.0115,-3.02937 0.017,-4.06681 0.006,-1.03744 -0.0505,-1.98419 -0.12442,-2.10391 -0.10894,-0.17625 -0.14893,-8.1991 -0.0886,-17.76982 0.006,-0.88 -0.0881,-3.616 -0.20803,-6.08 -0.35986,-7.39114 -0.42882,-18.18607 -0.12155,-19.02751 0.15816,-0.43313 0.20163,-1.12993 0.0966,-1.54844 -0.36642,-1.45986 -4.06345,-4.22405 -5.64958,-4.22405 -0.95719,0 -2.02776,-0.63706 -2.66573,-1.58629 -0.33518,-0.49869 -1.05036,-1.16571 -1.58931,-1.48226 -1.16561,-0.68461 -1.77991,-1.25717 -1.77991,-1.659 0,-0.16129 -0.288,-0.55389 -0.64,-0.87245 -0.352,-0.31856 -0.64,-0.75048 -0.64,-0.95982 0,-0.20935 -0.35982,-0.79903 -0.79961,-1.31041 -0.43979,-0.51137 -0.79979,-1.09214 -0.8,-1.29059 -2.1e-4,-0.19845 -0.21258,-0.53692 -0.47192,-0.75215 -0.25934,-0.21524 -0.56391,-0.91687 -0.67681,-1.55918 -0.11291,-0.64232 -0.62072,-1.82846 -1.12847,-2.63587 -0.50776,-0.8074 -0.92635,-1.7434 -0.93022,-2.08 -0.004,-0.33659 -0.29186,-1.2397 -0.64,-2.00692 -0.34813,-0.76723 -0.63297,-1.74638 -0.63297,-2.1759 0,-1.14582 -0.77405,-2.45137 -2.01425,-3.39731 -0.60058,-0.45809 -1.28429,-1.30965 -1.51935,-1.89237 -0.23506,-0.58272 -0.90416,-1.65031 -1.48689,-2.37244 -0.58273,-0.72212 -1.05951,-1.60449 -1.05951,-1.96082 0,-0.35632 -0.19805,-0.81222 -0.44012,-1.01312 -0.86754,-0.72 -1.20578,-2.97477 -1.03779,-6.91826 0.23969,-5.6268 0.23587,-5.77963 -0.16895,-6.76794 -0.20431,-0.49879 -0.40819,-1.08402 -0.45306,-1.3005 -0.0449,-0.21649 -0.31074,-0.62277 -0.59083,-0.90286 -0.28009,-0.28009 -0.50925,-0.61856 -0.50925,-0.75215 0,-0.13359 -0.64256,-0.70435 -1.42791,-1.26834 -0.78534,-0.564 -1.61334,-1.36127 -1.84,-1.77173 -0.22665,-0.41045 -0.87874,-1.52142 -1.44909,-2.4688 -0.57034,-0.94739 -1.03834,-2.06882 -1.04,-2.49207 -0.005,-1.29037 -2.11935,-2.9997 -4.3359,-3.50539 -1.66872,-0.38071 -3.48717,-1.29462 -3.99135,-2.00596 -0.0903,-0.12746 -0.86237,-0.40753 -1.71562,-0.62238 -1.01138,-0.25467 -2.44687,-1.07044 -4.12407,-2.34368 -1.41498,-1.07417 -2.80295,-2.09704 -3.08438,-2.27304 -1.3933,-0.87135 -4.19168,-3.15277 -4.19168,-3.41733 0,-0.16524 -0.14318,-0.21195 -0.31817,-0.1038 -0.48788,0.30153 -3.53116,-1.3503 -4.69435,-2.548 -0.57004,-0.58695 -1.17308,-1.11752 -1.34008,-1.17903 -0.52776,-0.19439 -3.5674,-3.16354 -3.5674,-3.48466 0,-0.16895 -0.18,-0.30944 -0.4,-0.3122 -0.22,-0.003 -1.11904,-0.65076 -1.99787,-1.44 -0.87883,-0.78924 -1.77883,-1.43498 -2,-1.43498 -0.22117,0 -0.40213,-0.144 -0.40213,-0.32 0,-0.176 -0.2208,-0.32 -0.49067,-0.32 -0.54153,0 -2.70933,-2.03077 -2.70933,-2.53807 0,-0.17568 -0.2989,-0.47938 -0.66422,-0.67489 -0.36533,-0.19552 -0.97733,-0.63927 -1.36,-0.98612 -1.40431,-1.27282 -1.66964,-1.47954 -2.36282,-1.84094 -0.38887,-0.20274 -0.95997,-0.90165 -1.26912,-1.55313 -0.30915,-0.65148 -2.582976,-3.25162 -5.052966,-5.7781 -2.46998,-2.52648 -4.53689,-4.87151 -4.59313,-5.21118 -0.0562,-0.33966 -0.23624,-0.61757 -0.4,-0.61757 -0.16376,0 -0.29774,-0.21099 -0.29774,-0.46886 0,-0.25788 -0.4551,-0.9872 -1.01134,-1.62072 -0.55623,-0.63351 -1.25343,-1.60325 -1.54932,-2.15498 -0.29589,-0.55172 -1.06971,-1.27907 -1.7196,-1.61633 -1.24971,-0.64854 -2.30651,-2.22134 -2.15768,-3.21116 0.11866,-0.78916 -0.5516,-2.36011 -1.096117,-2.56907 -0.47273,-0.1814 -1.90974,-3.02541 -1.80808,-3.57839 0.0343,-0.18674 -0.21739,-0.63985 -0.55938,-1.00693 -0.34198,-0.36707 -0.91294,-1.21064 -1.2688,-1.87459 -0.35585,-0.66395 -0.78294,-1.29119 -0.94908,-1.39388 -0.16614,-0.10267 -0.36108,-0.76233 -0.4332,-1.46589 -0.10081,-0.98338 -0.25558,-1.25746 -0.66927,-1.18517 -0.32713,0.0572 -0.53809,-0.11581 -0.53809,-0.44122 0,-0.29438 -0.48387,-1.07083 -1.07527,-1.72544 -0.59636,-0.6601 -1.17374,-1.71507 -1.29636,-2.36867 -0.12159,-0.64817 -0.56991,-1.69251 -0.99627,-2.32078 -0.42635,-0.62826 -0.86701,-1.63181 -0.97925,-2.23011 -0.11224,-0.59829 -0.33205,-1.08781 -0.48847,-1.08781 -0.15641,0 -0.28438,-0.4955 -0.28438,-1.10111 0,-0.60562 -0.144,-1.19012 -0.32,-1.29889 -0.176,-0.10877 -0.32,-0.84442 -0.32,-1.63478 0,-0.79035 -0.2422,-1.89785 -0.53822,-2.46111 -0.29603,-0.56326 -0.50099,-1.49211 -0.45548,-2.06411 0.0455,-0.572 -0.0658,-1.04 -0.24728,-1.04 -0.37504,0 -0.79987,-1.88446 -0.77703,-3.44667 0.008,-0.57567 -0.1038,-1.12028 -0.24937,-1.21025 -0.14557,-0.09 -0.18355,-0.37496 -0.0844,-0.63333 0.10683,-0.2784 -0.007,-0.46975 -0.27855,-0.46975 -0.32198,0 -0.41905,-0.27092 -0.32549,-0.9084 0.077,-0.52446 -0.0603,-1.10206 -0.32488,-1.3666 -1.41589,-1.41588 -1.39883,-1.26974 -1.64412,-14.08999 -0.0628,-3.28075 -0.20877,-6.11813 -0.32444,-6.30529 -0.11567,-0.18716 -0.12526,-0.67916 -0.0213,-1.09333 0.10395,-0.41417 0.25302,-1.6088 0.33127,-2.65472 0.0782,-1.04592 0.18912,-2.36967 0.2464,-2.94167 0.0573,-0.572 0.0206,-1.04075 -0.0815,-1.04166 -0.10209,-9.6e-4 -0.22664,-1.28779 -0.27678,-2.85973 -0.0735,-2.30453 0.0314,-3.1254 0.54184,-4.23834 0.91277,-1.99031 1.59935,-4.65685 1.67369,-6.50027 0.0355,-0.88 0.31685,-2.08103 0.62526,-2.66896 0.3694,-0.70419 0.49992,-1.44372 0.38251,-2.16724 -0.12176,-0.75034 -0.0199,-1.27339 0.32138,-1.65104 0.35179,-0.38922 0.48674,-1.13881 0.45611,-2.5336 -0.0334,-1.52005 0.094,-2.13277 0.5476,-2.633992 0.43695,-0.482826 0.50091,-0.761837 0.24524,-1.069895 -0.2199,-0.264966 -0.23777,-0.587635 -0.0491,-0.886003 0.16324,-0.258096 0.299,-0.731552 0.3017,-1.052125 0.003,-0.320569 0.2209,-0.798857 0.4849,-1.062857 0.264,-0.264 0.48,-0.872467 0.48,-1.352147 0,-0.49552 0.62185,-1.818938 1.44,-3.064589 0.792,-1.205843 1.44,-2.531091 1.44,-2.944995 0,-0.413904 0.16079,-0.752554 0.35732,-0.752554 0.20635,0 0.28248,-0.286198 0.18019,-0.677366 -0.11078,-0.423604 0.12267,-1.130404 0.62313,-1.88665 0.44014,-0.665107 0.81298,-1.656294 0.82851,-2.202637 0.0155,-0.546339 0.1458,-0.993347 0.28949,-0.993347 0.14369,0 0.17919,-0.213872 0.0789,-0.475274 -0.10035,-0.261507 0.19203,-0.92023 0.65004,-1.464553 0.45784,-0.544103 0.83243,-1.275696 0.83243,-1.625763 0,-0.723984 0.55678,-1.8801 1.13389,-2.35441 0.21414,-0.176 0.4807,-0.71336 0.59235,-1.194131 0.11165,-0.480771 0.63293,-1.363783 1.15838,-1.962247 0.52546,-0.59846 0.95538,-1.240937 0.95538,-1.427721 0,-0.186787 0.26148,-0.527776 0.58107,-0.757757 0.552997,-0.397942 1.081137,-1.326394 1.147997,-2.018144 0.0546,-0.565062 1.93172,-4.138723 2.51093,-4.780339 0.308,-0.341187 0.56,-0.750106 0.56,-0.908707 0,-0.158602 0.27359,-0.52745 0.60799,-0.819661 1.55483,-1.358685 4.51201,-4.978835 4.51201,-5.523559 0,-0.334252 0.11774,-0.607734 0.26165,-0.607734 0.59598,0 3.87697,-3.449498 4.32961,-4.551981 0.26916,-0.65559 1.47486,-2.16759 2.679336,-3.36 1.20448,-1.192409 2.39446,-2.572985 2.64441,-3.067942 0.5452,-1.079603 2.76508,-2.780077 3.62925,-2.780077 0.6157,0 2.24559,-1.242704 4.37574,-3.336272 0.616,-0.605421 1.84,-1.638506 2.72,-2.295741 0.88,-0.657235 1.78641,-1.456393 2.01424,-1.775904 0.73102,-1.025184 3.19048,-2.512083 4.15521,-2.512083 0.71221,0 1.35771,-0.430381 2.71713,-1.81162 0.98064,-0.996392 2.05814,-1.831892 2.39444,-1.856667 0.33629,-0.02477 1.17564,-0.390386 1.86521,-0.812468 2.68422,-1.642989 4.7487,-2.559245 5.7664,-2.559245 0.64263,0 1.29301,-0.247489 1.64597,-0.626342 0.89985,-0.965882 4.8938,-2.893658 5.99505,-2.893658 0.57864,0 1.20356,-0.256286 1.51671,-0.622025 0.29293,-0.342114 1.08093,-0.723838 1.75112,-0.848277 0.67018,-0.124439 1.55184,-0.443194 1.95923,-0.708346 0.40738,-0.265151 1.40553,-0.472043 2.2181,-0.459758 1.06276,0.01607 1.75298,-0.18253 2.4593,-0.707615 1.22742,-0.912474 2.52492,-1.271535 4.21424,-1.166216 0.81765,0.05097 1.48793,-0.09376 1.77813,-0.383959 0.25618,-0.256176 0.95188,-0.572541 1.546,-0.703032 0.59413,-0.130492 1.52197,-0.485192 2.06188,-0.788223 1.00657,-0.564956 3.08142,-1.099783 5.61205,-1.446598 0.78673,-0.107818 1.50673,-0.317536 1.6,-0.46604 0.0933,-0.148504 1.2141,-0.340523 2.49071,-0.426707 1.27662,-0.08619 2.50062,-0.300146 2.72,-0.475467 0.5191,-0.414844 3.01097,-0.693964 7.70274,-0.862804 2.08112,-0.07489 3.9716,-0.2919849 4.20107,-0.4824288 0.26904,-0.2232835 0.68676,-0.2441993 1.17615,-0.058891 0.4174,0.1580535 1.62292,0.2308202 2.67892,0.161704 4.37849,-0.2865779 16.6814,-0.3221763 17.21539,-0.049813 0.36062,0.1839389 1.23267,0.1570294 2.33636,-0.072094 1.44933,-0.3008803 1.88573,-0.2838278 2.46597,0.096357 0.38775,0.254064 1.56839,0.5247928 2.62364,0.6016178 1.05525,0.07683 2.40876,0.384693 3.0078,0.68415 0.59904,0.299456 1.41811,0.544465 1.82015,0.544465 0.40203,0 1.71191,0.2334 2.91083,0.518667 1.19893,0.285266 2.55169,0.56764 3.00614,0.627496 0.45445,0.05986 1.21983,0.258456 1.70083,0.441333 0.48101,0.182877 1.63318,0.332504 2.56039,0.332504 0.92721,0 1.79383,0.108 1.92583,0.24 0.132,0.132 0.336,0.252066 0.45334,0.266814 0.6648,0.08356 1.89761,0.793695 2.45333,1.413186 0.6951,0.774872 1.99807,1.422442 2.64718,1.315641 0.22395,-0.03685 0.60448,0.130308 0.84563,0.371457 0.24115,0.241148 1.68176,0.699366 3.20136,1.018263 2.34538,0.492193 2.86213,0.719179 3.41959,1.502055 0.36118,0.507233 1.11334,1.153434 1.67147,1.436002 0.55812,0.282568 1.27696,0.743934 1.59741,1.025257 0.32045,0.281323 1.14514,0.546547 1.83264,0.589386 1.7156,0.106902 3.69772,1.186513 5.77156,3.143624 0.27877,0.263074 0.73021,0.478316 1.0032,0.478316 0.27299,0 0.73224,0.36 1.02053,0.8 0.2883,0.44 0.75214,0.8 1.03075,0.8 0.27862,0 0.78975,0.36 1.13585,0.8 0.34611,0.44 0.93549,0.8 1.30975,0.8 0.40294,0 1.29312,0.652558 2.18263,1.6 0.82618,0.88 1.5823,1.6 1.68026,1.6 0.098,0 0.81942,0.432816 1.60325,0.961814 0.78382,0.528999 1.62904,0.883572 1.87826,0.787936 0.26462,-0.101545 1.12338,0.463469 2.0643,1.358186 2.08882,1.986246 2.31011,2.145955 3.59306,2.593194 1.17406,0.40928 1.92515,1.194915 1.94114,2.030425 0.006,0.292352 0.44218,0.895056 0.97018,1.339341 0.528,0.444282 0.96,0.935981 0.96,1.092666 0,0.156681 0.36,0.623078 0.8,1.036438 0.44,0.41336 0.8,0.942461 0.8,1.175779 0,0.233322 0.21047,0.424221 0.46772,0.424221 0.25724,0 1.10456,0.612 1.88293,1.36 0.77836,0.748 2.41985,2.008 3.64773,2.8 2.0479,1.320915 2.2658,1.568333 2.63481,2.99184 0.42038,1.62168 1.86029,3.562355 2.88428,3.887357 0.32893,0.104397 0.68886,0.603257 0.79985,1.108576 0.11098,0.505318 0.40899,0.998272 0.66224,1.095453 0.25324,0.09718 0.46044,0.48224 0.46044,0.855692 0,0.373453 0.648,1.437498 1.44,2.364544 0.792,0.927047 1.44,1.854532 1.44,2.061082 0,0.206547 0.216,0.458429 0.48,0.559734 0.264,0.101309 0.48,0.33745 0.48,0.524762 0,0.187312 0.22336,0.587373 0.49635,0.889024 0.27299,0.301654 0.52637,0.960992 0.56305,1.465197 0.0503,0.690755 0.33596,1.051517 1.15897,1.463478 1.43681,0.719213 1.76473,1.117603 2.20635,2.680554 0.24848,0.879395 0.63431,1.428 1.17876,1.676067 0.44515,0.202826 0.95884,0.761923 1.14154,1.242438 0.18269,0.480516 0.8278,1.478519 1.43357,2.217789 0.60577,0.739267 1.10141,1.643888 1.10141,2.010269 0,0.366378 0.108,0.666048 0.24,0.665933 0.36038,-3.14e-4 0.28894,2.362611 -0.08,2.646067 -0.19948,0.153258 -0.12522,0.361133 0.19717,0.55193 0.31951,0.1891 0.46356,0.586499 0.3769,1.03983 -0.10263,0.536867 0.25043,1.161558 1.31578,2.32807 0.80082,0.876874 1.45922,1.762314 1.4631,1.967648 0.004,0.205332 0.12025,0.421332 0.25861,0.48 0.13836,0.05867 0.58806,0.585757 0.99934,1.171316 0.60807,0.865734 0.76008,1.529648 0.81359,3.553478 0.052,1.966682 0.22129,2.740394 0.80688,3.687904 0.61082,0.98833 0.66264,1.24873 0.29485,1.481619 -0.3233,0.204717 -0.33529,0.283898 -0.0435,0.28745 0.32362,0.0039 0.32362,0.134086 0,0.662653 -0.34085,0.556716 -0.31669,0.70662 0.15729,0.975892 0.308,0.17498 0.56,0.47966 0.56,0.67705 0,0.1974 0.24628,0.63103 0.54728,0.96364 0.37936,0.41919 0.43721,0.67275 0.18856,0.82643 -0.48574,0.3002 -0.0209,2.77801 0.66287,3.5336 0.28671,0.31682 0.52129,0.80819 0.52129,1.09194 0,0.28376 0.12508,0.59323 0.27797,0.68771 0.15288,0.0945 0.36759,0.73228 0.47713,1.41733 0.10955,0.68504 0.41646,1.42587 0.68204,1.64627 0.26557,0.22041 0.48286,0.74311 0.48286,1.16156 0,0.41845 0.16163,0.76082 0.35918,0.76082 0.25488,0 0.26082,0.11852 0.0205,0.40813 -0.4964,0.59812 -0.283,4.85657 0.27738,5.53525 0.35598,0.43112 0.37053,0.59181 0.063,0.69532 -0.22,0.074 -0.4,0.49687 -0.4,0.9396 0,0.44274 -0.22691,1.28316 -0.50424,1.86759 -0.46536,0.98067 -0.46114,1.12841 0.0547,1.91567 0.39332,0.60027 0.45219,0.91904 0.19869,1.07571 -0.41463,0.25625 -0.25962,2.00837 0.29657,3.35229 0.29437,0.71129 0.28929,0.9634 -0.0233,1.1566 -0.21985,0.13588 -0.35614,0.66266 -0.30286,1.17064 0.0533,0.50797 -0.0255,1.12164 -0.17513,1.36371 -0.14961,0.24207 -0.29288,0.96199 -0.31839,1.59981 -0.0255,0.63782 -0.16391,1.34876 -0.30755,1.57984 -0.1583,0.25468 -0.0598,0.64272 0.25019,0.9852 0.61154,0.67574 0.66543,1.51914 0.11135,1.74271 -0.26863,0.10839 -0.27846,0.1697 -0.03,0.18667 0.20473,0.014 0.29775,0.30173 0.20821,0.64412 -0.089,0.34037 0.0133,1.14948 0.22732,1.79802 0.24417,0.73984 0.27437,1.25442 0.0811,1.38114 -0.73597,0.48248 -0.93122,2.8011 -0.64557,7.66601 0.055,0.93722 -0.0127,1.77371 -0.15051,1.85889 -0.13781,0.0852 -0.25056,0.47755 -0.25056,0.87197 0,0.39441 -0.15721,0.87432 -0.34935,1.06646 -0.42059,0.42059 -0.6003,3.88388 -0.24,4.62505 0.16375,0.33682 0.0855,0.66785 -0.21737,0.91918 -0.26031,0.21603 -0.47328,0.536 -0.47328,0.71105 0,0.17504 -0.55384,0.85575 -1.23077,1.51269 -1.00826,0.97848 -1.2321,1.42006 -1.23818,2.44255 -0.009,1.47938 -0.61948,3.86141 -1.05974,4.1335 -0.17125,0.10582 -0.31134,0.6794 -0.31134,1.27463 0,0.59523 -0.144,1.17123 -0.32,1.28 -0.176,0.10877 -0.32,0.6882 -0.32,1.28763 0,0.76235 -0.19232,1.19278 -0.64,1.43237 -0.352,0.18838 -0.64,0.48431 -0.64,0.65762 0,0.1733 -0.36,0.88538 -0.8,1.58238 -0.53995,0.85533 -0.8,1.72474 -0.8,2.67456 0,1.64691 -0.63375,3.331 -1.57358,4.18153 -0.36653,0.33171 -0.66642,0.86062 -0.66642,1.17536 0,0.65027 -1.15134,1.56855 -1.96665,1.56855 -0.29933,0 -0.97078,0.35891 -1.4921,0.79756 -0.92996,0.78251 -1.3147,2.00293 -1.514,4.80244 -0.0951,1.33548 -0.57515,2.40857 -1.54136,3.44525 -0.45379,0.48689 -1.21412,1.56689 -1.68963,2.4 -0.4755,0.83311 -1.29461,1.92311 -1.82022,2.42221 -0.52562,0.4991 -1.48779,1.7231 -2.13816,2.72 -0.65037,0.9969 -1.99595,2.60343 -2.99018,3.57008 -1.061,1.03155 -1.8077,2.03411 -1.8077,2.4271 0,0.74275 -1.27657,1.9993 -2.65874,2.61704 -0.57438,0.25671 -1.12835,0.92076 -1.53497,1.84 -0.34993,0.79108 -0.7735,1.43832 -0.94126,1.43832 -0.16777,0 -0.30899,0.18 -0.31384,0.4 -0.005,0.22 -0.51961,0.76 -1.14392,1.2 -1.5075,1.06246 -2.68727,2.19588 -2.68727,2.5817 0,0.69504 -2.64475,3.14588 -3.62172,3.35618 -1.72175,0.37063 -2.65054,1.00521 -5.79139,3.95685 -2.00471,1.88395 -3.74524,3.19911 -5.14719,3.8893 -2.38577,1.1745 -3.0397,1.90131 -3.0397,3.37844 0,1.13477 1.08706,2.62895 4.62527,6.35753 1.16909,1.232 2.33837,2.636 2.5984,3.12 0.26002,0.484 0.60344,0.88 0.76315,0.88 0.1597,0 0.27823,0.42701 0.26339,0.94892 -0.0148,0.5219 0.13593,1.1452 0.33504,1.38511 0.19911,0.23991 0.40445,0.71425 0.45631,1.05409 0.0519,0.33985 0.34273,0.97259 0.64637,1.40609 0.30364,0.43351 0.55207,0.97215 0.55207,1.19699 0,0.22484 0.144,0.4088 0.32,0.4088 0.176,0 0.32,0.27205 0.32,0.60455 0,0.3325 0.2761,0.9445 0.61356,1.36 0.51809,0.6379 0.58556,1.09156 0.43359,2.91545 -0.10537,1.26463 -0.0551,2.16 0.12131,2.16 0.1657,0 0.29066,0.396 0.27769,0.88 -0.013,0.484 0.0826,0.95695 0.21238,1.05101 0.32712,0.23706 0.5543,2.6664 0.67227,7.18899 0.056,2.14542 0.2663,4.14181 0.47663,4.52393 0.27927,0.50733 0.29054,1.25098 0.0437,2.88 -0.18304,1.20784 -0.44147,3.27607 -0.57428,4.59607 -0.23566,2.34218 -1.04948,5.18472 -1.72146,6.01281 -0.18425,0.22705 -0.44694,1.12098 -0.58376,1.98651 -0.28096,1.77735 -1.02361,3.53022 -2.11631,4.99515 -0.40799,0.54695 -1.09597,2.17776 -1.52885,3.62401 -0.57671,1.92676 -1.15195,3.07214 -2.15235,4.28554 -0.75091,0.91079 -1.46385,1.72942 -1.58432,1.81919 -0.12046,0.0898 -0.31805,0.55776 -0.43909,1.04 -0.12103,0.48223 -0.3127,0.87679 -0.42592,0.87679 -0.11322,0 -0.54962,0.648 -0.96978,1.44 -0.42015,0.792 -0.88421,1.44 -1.03123,1.44 -0.14702,0 -0.47438,0.40042 -0.72746,0.88981 -0.52998,1.02487 -5.73158,5.65951 -7.49058,6.67412 -0.75951,0.4381 -1.50202,0.62501 -2.06571,0.52 -0.484,-0.0902 -0.88,-0.0312 -0.88,0.13094 0,0.16218 -0.396,0.27928 -0.88,0.26023 -0.484,-0.019 -1.13661,0.0898 -1.45024,0.24188 -0.72324,0.35069 -4.2331,0.37848 -4.77854,0.0378 -0.51456,-0.32136 -0.98171,-0.42691 -2.90318,-0.65594 -1.27568,-0.15206 -1.91804,-0.0106 -3.84,0.84571 -3.50121,1.5599 -3.82833,1.72258 -4.92368,2.44857 -0.5586,0.37025 -1.66945,0.76279 -2.46856,0.87232 -0.89558,0.12275 -2.04036,0.61492 -2.98435,1.28304 -1.64459,1.16397 -3.01105,1.54812 -5.95659,1.67462 -1.02582,0.0441 -2.20164,0.16454 -2.61292,0.26777 -0.94067,0.2361 -7.2899,-0.39846 -7.51502,-0.75108 -0.0918,-0.1438 -0.78072,-0.36405 -1.53093,-0.48945 -0.99677,-0.16661 -1.77215,-0.61345 -2.88,-1.65973 -1.37522,-1.2988 -1.6317,-1.41724 -2.76211,-1.27546 -1.33353,0.16725 -1.78116,0.59219 -1.78898,1.69828 -0.003,0.38141 -0.30614,1.38941 -0.67432,2.24 -0.42268,0.97648 -0.70999,2.43114 -0.7795,3.94653 -0.0605,1.32 -0.24919,3.12 -0.41922,4 -0.17003,0.88 -0.23405,1.99206 -0.14226,2.47123 0.0918,0.4792 -0.0467,1.4152 -0.30774,2.08 -0.26105,0.66483 -0.65489,2.43277 -0.87519,3.92877 -0.2203,1.496 -0.76572,3.86998 -1.21204,5.27549 -0.73544,2.31603 -0.77696,2.72269 -0.44306,4.33926 0.529,2.56119 0.48111,2.94435 -0.6449,5.16023 -1.05178,2.06976 -1.39431,4.74246 -0.64,4.99392 0.54993,0.18329 0.45401,2.3735 -0.14117,3.22326 -0.28298,0.404 -0.55193,1.26403 -0.59767,1.9112 -0.20497,2.89984 -0.86815,7.01987 -1.27109,7.89664 -0.24265,0.528 -0.50999,1.40816 -0.59409,1.95587 -0.40272,2.62285 -2.21518,3.6721 -5.33542,3.08877 z m 4.11537,-26.52646 c 1.48468,-1.03991 1.65561,-2.12048 1.65298,-10.44948 -0.002,-5.93049 0.10534,-8.04905 0.45694,-9.0287 0.2976,-0.82922 0.46433,-2.61958 0.47344,-5.08374 0.0151,-4.09108 0.48382,-8.96645 1.03091,-10.7232 0.18618,-0.59782 0.44678,-2.82982 0.57912,-4.96 0.13233,-2.13019 0.42353,-4.26257 0.6471,-4.73864 0.83956,-1.78773 -0.68431,-3.61687 -3.31346,-3.97724 -1.61852,-0.22184 -1.60053,-0.23691 -3.48862,2.92282 l -1.33851,2.24 0.0389,3.69493 c 0.0214,2.03221 0.19619,4.27911 0.38845,4.9931 0.25653,0.95268 0.25235,1.57703 -0.0157,2.346 -0.24355,0.69863 -0.28904,2.07399 -0.13651,4.12691 0.12582,1.69349 0.21101,3.90053 0.18932,4.90453 -0.0217,1.004 0.11016,2.38106 0.29301,3.0601 0.2681,0.99565 0.20808,1.68352 -0.31009,3.55337 -0.3534,1.27533 -0.62918,2.85028 -0.61283,3.49991 0.0346,1.37408 -0.24037,4.37382 -0.49823,5.43587 -0.0981,0.4041 -0.0682,0.9081 0.0665,1.12 0.13469,0.2119 0.26325,0.74528 0.2857,1.18528 0.0224,0.44 0.20465,1.57565 0.4049,2.52368 0.20025,0.94803 0.36409,2.20803 0.36409,2.8 0,1.00282 0.0716,1.07632 1.04879,1.07632 0.57684,0 1.38405,-0.23482 1.79381,-0.52182 z m 29.99832,-34.8674 c 0.68149,-0.28007 2.03501,-0.90959 3.00781,-1.39892 1.55366,-0.78152 3.3188,-1.37911 4.31127,-1.4596 0.176,-0.0143 0.78085,-0.27037 1.34411,-0.56911 0.56326,-0.29873 1.29984,-0.54315 1.63684,-0.54315 0.33701,0 0.97887,-0.288 1.42637,-0.64 0.44749,-0.352 0.97091,-0.64 1.16315,-0.64 0.19224,0 0.34953,-0.1521 0.34953,-0.33799 0,-0.67813 2.89857,-1.66583 4.288,-1.46116 3.81311,0.56171 4.97969,0.81635 5.88529,1.28465 0.54721,0.28298 1.2947,0.5145 1.6611,0.5145 0.93925,0 2.64582,-0.75994 3.69773,-1.64661 0.49159,-0.41436 1.3512,-1.14432 1.91025,-1.62212 0.55905,-0.4778 1.4797,-1.7018 2.0459,-2.72 1.00372,-1.805 2.07124,-3.43618 3.09639,-4.73127 0.60908,-0.76947 2.8765,-5.43509 3.18805,-6.56 0.12187,-0.44 0.53645,-1.232 0.9213,-1.76 1.87197,-2.56827 2.46852,-4.39389 3.40383,-10.41664 0.15175,-0.97716 0.40245,-2.11872 0.55711,-2.5368 0.15466,-0.41809 0.16765,-1.36795 0.0289,-2.1108 -0.13878,-0.74285 -0.34841,-3.63329 -0.46584,-6.4232 -0.22627,-5.37573 -0.24196,-6.6581 -0.13446,-10.99256 0.0778,-3.13515 -0.23161,-4.06711 -2.1551,-6.49202 -0.39137,-0.49339 -0.86979,-1.48459 -1.06314,-2.20266 -0.2006,-0.74496 -0.75386,-1.64409 -1.28842,-2.0939 -0.51526,-0.43357 -0.93685,-1.0307 -0.93685,-1.32696 0,-0.70716 -1.83732,-2.92446 -2.4233,-2.92446 -0.25118,0 -0.4567,-0.14189 -0.4567,-0.31532 0,-0.17343 -0.828,-0.96534 -1.84,-1.7598 -1.49266,-1.1718 -2.08465,-1.44452 -3.136,-1.44468 -0.7128,-1.1e-4 -1.4328,0.12746 -1.6,0.28348 -0.49198,0.4591 -4.39365,2.50058 -5.264,2.7543 -0.44,0.12826 -1.232,0.42135 -1.76,0.65131 -0.528,0.22995 -1.78914,0.51244 -2.80253,0.62775 -1.3504,0.15365 -2.28933,0.51032 -3.51535,1.33537 -2.47437,1.66513 -2.77099,1.78747 -4.70781,1.94179 -2.70433,0.21546 -3.21431,0.67719 -3.21431,2.91014 0,1.51844 0.16189,2.0757 0.90426,3.11262 1.51809,2.12042 2.07534,4.06582 1.90718,6.65805 -0.15741,2.4263 -0.63242,3.65065 -1.97923,5.10148 -0.74456,0.80207 -1.10397,2.23293 -0.81974,3.26351 0.30706,1.11337 0.48347,3.91843 0.27168,4.32 -0.13923,0.264 -0.49085,1.01645 -0.78137,1.67212 -0.29052,0.65567 -1.0895,1.82977 -1.7755,2.60911 -1.22967,1.39698 -1.24728,1.45344 -1.24728,4.00014 0,2.01832 -0.13968,2.81226 -0.6388,3.6309 -0.35135,0.57625 -0.63935,1.29973 -0.64,1.60773 -6.4e-4,0.308 -0.1355,0.56 -0.29964,0.56 -0.44656,0 -0.77682,1.2757 -0.70417,2.72 0.0971,1.93001 -1.00137,5.39121 -2.20521,6.94859 -0.58306,0.75427 -1.76564,1.92131 -2.62797,2.59342 -1.48209,1.15515 -1.69361,1.2223 -3.86604,1.22728 -1.4851,0.003 -2.63781,-0.17359 -3.25817,-0.50028 -1.3015,-0.68539 -2.96083,-0.96941 -3.44351,-0.5894 -0.21807,0.17168 -0.79676,0.40781 -1.28598,0.52475 -1.30889,0.31284 -2.26017,1.60329 -2.69655,3.65797 -0.54823,2.58137 -0.50086,4.73563 0.1339,6.08931 0.71326,1.5211 1.17226,1.96836 2.02,1.96836 0.38147,0 1.77693,0.51409 3.10102,1.14243 3.45544,1.63975 3.75307,1.73693 7.29112,2.38081 4.04687,0.73648 4.00174,0.73543 5.48092,0.12754 z m -34.60092,-17.54016 c 0.528,-0.0616 1.608,-0.34367 2.4,-0.6267 0.792,-0.28303 1.68773,-0.5167 1.99052,-0.51926 0.30278,-0.003 1.33755,-0.36466 2.29949,-0.80466 0.96194,-0.44 1.98023,-0.8 2.26287,-0.8 0.28263,0 0.79982,-0.26639 1.1493,-0.59198 0.34948,-0.3256 1.24138,-0.77354 1.98199,-0.99543 1.8472,-0.55343 9.66801,-0.82179 11.23871,-0.38563 1.48323,0.41187 3.07712,-0.21437 3.07712,-1.209 0,-0.33309 0.0752,-0.80152 0.16706,-1.04097 0.0919,-0.23944 -0.0173,-0.68743 -0.24255,-0.99553 -0.59599,-0.81507 -6.77437,-1.1417 -8.14908,-0.43081 -0.52076,0.2693 -1.38252,0.47724 -1.91502,0.46211 -0.5325,-0.0151 -1.14574,0.0822 -1.36277,0.21633 -0.21702,0.13413 -1.78577,0.30623 -3.48611,0.38245 -2.13208,0.0956 -3.57862,0.3419 -4.66102,0.79371 -0.86323,0.36032 -2.37523,0.71963 -3.36,0.79848 -0.98478,0.0788 -2.84593,0.22615 -4.13589,0.32735 -2.18174,0.17117 -2.4329,0.26981 -3.6,1.41379 -1.39463,1.36702 -1.50384,1.85448 -0.71477,3.19028 0.5639,0.9546 1.46675,1.25568 3.14015,1.04718 0.528,-0.0658 1.392,-0.17006 1.92,-0.23171 z m -8.43859,-12.61032 c 1.16677,-0.52739 2.94092,-1.12903 3.94255,-1.33697 1.00162,-0.20793 2.80017,-0.72012 3.99676,-1.13818 1.93309,-0.67538 2.75999,-0.76274 7.41745,-0.78364 2.88301,-0.0129 5.52983,-0.0276 5.88183,-0.0325 0.352,-0.005 1.88659,-0.14529 3.4102,-0.31192 1.71227,-0.18726 3.56718,-0.19009 4.8571,-0.007 2.76574,0.39168 4.61613,0.1313 5.06806,-0.71315 0.29528,-0.55173 0.21711,-0.7627 -0.49216,-1.32826 -0.46376,-0.36978 -0.8432,-0.82892 -0.8432,-1.02031 0,-0.19139 -0.45855,-0.43969 -1.019,-0.55178 -0.56045,-0.11209 -1.25045,-0.41325 -1.53332,-0.66925 -0.36621,-0.33142 -1.70511,-0.52197 -4.64981,-0.66177 -2.27453,-0.10798 -4.37681,-0.32546 -4.67173,-0.4833 -1.2392,-0.6632 -10.28087,-0.2179 -10.78611,0.53121 -0.12102,0.17943 -0.50803,0.33366 -0.86003,0.34274 -3.99812,0.10315 -6.6915,0.47035 -8.77605,1.19649 -1.30683,0.45522 -2.77433,0.82768 -3.26111,0.82768 -0.48679,0 -0.96257,0.1254 -1.05729,0.27867 -0.0947,0.15327 -0.59636,0.36349 -1.11473,0.46717 -1.07459,0.21492 -2.91082,1.86368 -2.91082,2.61365 0,1.18079 0.94065,2.68036 1.97181,3.14343 2.24603,1.00867 2.42183,0.99692 5.4296,-0.36262 z m 41.54071,-14.29142 c -0.0376,-1.36559 -2.06417,-5.28888 -2.73193,-5.28888 -0.2045,0 -0.55109,-0.216 -0.77019,-0.48 -0.2191,-0.264 -0.63273,-0.48455 -0.91918,-0.49011 -0.60934,-0.0118 -2.28082,-1.40368 -2.28082,-1.89924 0,-0.42534 -1.90324,-1.60784 -2.5904,-1.60945 -0.28073,-6.4e-4 -0.78116,-0.30037 -1.11207,-0.66604 -0.56419,-0.62341 -2.96645,-1.89516 -3.57987,-1.89516 -0.53851,0 -2.9016,-1.27182 -3.01933,-1.62502 -0.0656,-0.19686 -0.83459,-0.42556 -1.70882,-0.50822 -0.87423,-0.0827 -2.14138,-0.38373 -2.81589,-0.66903 -0.90826,-0.38417 -1.36813,-0.43021 -1.7728,-0.17749 -0.61537,0.38431 -4.57506,0.27232 -8.52082,-0.241 -3.01923,-0.39278 -5.30402,-0.21376 -7.05325,0.55265 -0.69671,0.30526 -1.62675,0.58866 -2.06675,0.62979 -2.26871,0.21208 -4.0191,0.50551 -4.312,0.72287 -0.69054,0.51243 -3.17021,1.03627 -4.51411,0.95363 -1.6466,-0.10126 -2.82779,0.62871 -4.29521,2.65442 -0.87148,1.20305 -0.93099,1.46443 -0.81564,3.58256 0.18622,3.41977 0.44963,4.29435 1.44255,4.78969 0.69818,0.3483 1.15822,0.35868 2.36097,0.0533 0.82161,-0.20861 1.74754,-0.60889 2.05762,-0.88952 0.61207,-0.55391 8.4589,-2.64076 12.07582,-3.21153 2.98279,-0.4707 8.64616,-0.46989 10.24,0.002 3.01237,0.89088 5.96686,1.41982 8.96,1.60411 1.85792,0.1144 3.48636,0.38264 3.88277,0.6396 0.37552,0.24341 0.80752,0.41373 0.96,0.37848 0.15248,-0.0352 0.6826,0.10317 1.17806,0.30759 0.49546,0.20442 1.17096,0.37168 1.50112,0.37168 0.33015,0 0.68928,0.144 0.79805,0.32 0.10877,0.176 0.45217,0.32 0.7631,0.32 0.31094,0 0.88295,0.33808 1.27115,0.75129 0.41787,0.44482 1.45233,0.92738 2.53578,1.18292 1.00648,0.23739 2.24083,0.67718 2.74299,0.9773 0.84364,0.50421 0.95915,0.50618 1.52,0.026 0.33384,-0.28584 0.59894,-0.81171 0.5891,-1.16859 z m 1.72654,-12.80325 c 0.61615,-0.61616 0.38045,-1.49236 -0.99147,-3.68563 -1.38411,-2.21276 -2.11585,-2.79871 -3.28143,-2.62764 -1.35781,0.19929 -1.37859,0.8145 -0.10222,3.02763 1.99682,3.46235 3.25416,4.40659 4.37512,3.28564 z m -0.78866,-17.00563 c 1.25363,-0.25073 1.31884,-1.08157 0.2,-2.54844 -0.44,-0.57688 -0.8,-1.18706 -0.8,-1.35597 0,-0.16891 -0.216,-0.39 -0.48,-0.49131 -0.264,-0.10131 -0.48,-0.35182 -0.48,-0.5567 0,-0.20488 -0.26352,-0.6054 -0.5856,-0.89004 -0.32208,-0.28465 -0.71808,-0.75807 -0.88,-1.05204 -0.16192,-0.29398 -1.04182,-1.32965 -1.95534,-2.3015 -1.36713,-1.45443 -1.78019,-2.18066 -2.33508,-4.1055 -0.37078,-1.28617 -0.79682,-2.6265 -0.94677,-2.9785 -1.00778,-2.36584 -1.04064,-2.56072 -0.97115,-5.76 0.0114,-0.528 0.0385,-2.112 0.06,-3.52 0.0216,-1.408 0.0554,-3.208 0.0753,-4 0.0198,-0.792 0.29313,-1.99685 0.6073,-2.67745 0.31418,-0.6806 0.62725,-1.6166 0.69572,-2.08 0.1142,-0.77291 0.95364,-3.03406 2.33236,-6.28255 0.29879,-0.704 1.21887,-2.02826 2.04461,-2.94279 0.82574,-0.91453 1.75857,-2.05537 2.07297,-2.53519 0.31439,-0.47983 1.15078,-1.4868 1.85865,-2.23773 0.70787,-0.75092 1.56745,-1.72036 1.91018,-2.15429 0.34273,-0.43394 1.38646,-1.04844 2.3194,-1.36555 1.04553,-0.35539 1.7697,-0.80796 1.88769,-1.17973 0.20523,-0.64663 2.20468,-1.64452 2.69183,-1.34344 0.4995,0.3087 4.58362,-0.52201 5.60737,-1.14054 0.65903,-0.39818 1.12012,-0.49044 1.44,-0.28813 0.25881,0.16367 1.07056,0.2998 1.80389,0.30249 0.73334,0.003 1.38134,0.12879 1.44,0.28022 0.0587,0.15143 1.04267,0.73131 2.18667,1.28862 4.60342,2.24261 5.70463,3.00404 6.45525,4.46349 0.39598,0.7699 1.03791,1.5207 1.42652,1.66845 0.38862,0.14775 0.82619,0.46748 0.9724,0.71051 0.14621,0.24303 0.51783,0.53449 0.82583,0.6477 0.36048,0.13249 0.56,0.54258 0.56,1.15102 0,0.60764 0.5706,1.7826 1.59776,3.29004 0.87877,1.28967 1.59877,2.4966 1.6,2.68208 0.003,0.52406 1.95887,2.22453 3.20224,2.78476 0.80507,0.36275 2.17776,0.5101 4.88179,0.52403 5.11689,0.0264 5.79843,0.40431 7.44758,4.12994 0.80827,1.82599 1.51331,2.62404 2.31823,2.62404 0.52783,0 1.06655,-1.68079 1.20369,-3.75548 l 0.13527,-2.04631 -1.44572,-1.54559 c -0.89561,-0.95748 -1.68551,-2.22782 -2.07589,-3.33854 -0.3466,-0.98613 -1.061,-2.49314 -1.58756,-3.34891 -0.52656,-0.85577 -0.95739,-1.69771 -0.95739,-1.87097 0,-0.17325 -0.288,-0.57564 -0.64,-0.8942 -0.352,-0.31856 -0.64,-0.69871 -0.64,-0.84479 0,-0.38419 -1.96521,-3.52042 -2.60995,-4.16516 -0.92173,-0.92173 -1.51335,-1.98317 -2.17137,-3.89574 -0.34656,-1.0073 -0.81654,-2.03483 -1.04439,-2.28339 -1.53965,-1.67959 -5.49058,-5.93187 -6.89429,-7.42014 -0.924,-0.97966 -1.68,-1.90936 -1.68,-2.06599 0,-0.15663 -0.15723,-0.28479 -0.34939,-0.28479 -0.52486,0 -1.99915,-1.18758 -4.56843,-3.68 -4.0455,-3.92447 -5.25665,-4.85939 -6.84551,-5.28425 -1.05249,-0.28143 -2.00636,-0.87745 -3.11667,-1.94745 -1.8721,-1.80411 -3.84184,-2.43625 -8.7926,-2.82179 -2.67946,-0.20865 -3.10461,-0.16908 -3.65088,0.33985 -0.34004,0.3168 -1.28485,0.7974 -2.09957,1.06801 -1.79827,0.59729 -3.24255,1.86198 -3.84356,3.36563 -0.24622,0.616 -0.99796,1.82281 -1.67053,2.6818 -0.77853,0.99431 -1.23498,1.9245 -1.25621,2.56 -0.17891,5.35397 -0.61677,9.69744 -1.19744,11.8782 -0.37491,1.408 -0.68335,2.96929 -0.68543,3.46953 -0.002,0.50024 -0.29178,1.27566 -0.64378,1.72315 -0.352,0.4475 -0.64,1.15421 -0.64,1.57048 0,0.41626 -0.12089,0.75684 -0.26863,0.75684 -0.14775,0 -0.44775,0.396 -0.66667,0.88 -0.21892,0.484 -0.97642,1.63195 -1.68333,2.55099 -0.81327,1.05732 -1.57177,2.58508 -2.06534,4.16 -1.30759,4.17232 -1.44907,5.3788 -1.03363,8.81434 0.33898,2.80327 0.31801,3.3016 -0.20349,4.83583 -0.48339,1.42212 -0.52855,2.03877 -0.26786,3.65754 0.17246,1.07087 0.21455,2.13475 0.0935,2.36417 -0.42887,0.81308 -0.65497,8.23591 -0.29193,9.58414 0.1935,0.7186 0.40537,2.19 0.47082,3.26977 0.0655,1.07977 0.13513,2.23201 0.15484,2.56054 0.0837,1.39519 2.51796,4.23194 3.89012,4.53332 0.50136,0.11012 0.91156,0.33277 0.91156,0.49479 0,0.16201 0.19586,0.29457 0.43524,0.29457 0.23938,0 0.96963,0.504 1.62278,1.12 0.65315,0.616 1.4293,1.12076 1.72476,1.12168 0.29547,9.6e-4 0.96922,0.27841 1.49722,0.61661 1.13399,0.72638 1.08479,0.71675 2.36,0.46171 z m -71.04017,-5.47831 c 0.62642,-0.29726 1.39572,-0.79724 1.70956,-1.11108 0.31384,-0.31384 0.78022,-0.57061 1.0364,-0.57061 0.25618,0 0.99628,-0.36 1.64465,-0.8 0.82971,-0.56305 1.60961,-0.8 2.63318,-0.8 0.79987,0 2.03978,-0.27815 2.75535,-0.61812 1.01208,-0.48083 2.4026,-0.67394 6.26103,-0.86951 2.728,-0.13827 5.58201,-0.21803 6.34223,-0.17724 1.76447,0.0947 4.70752,-1.5429 5.02985,-2.79868 0.22974,-0.89506 0.19853,-6.28043 -0.0511,-8.81645 -0.4059,-4.12358 0.0535,-12.67615 0.78318,-14.5798 0.45081,-1.17614 2.42522,-2.7996 3.649,-3.0004 4.25398,-0.69799 5.24779,-0.92426 5.82012,-1.32514 0.35702,-0.25006 0.90963,-0.45466 1.22802,-0.45466 0.87826,0 4.08342,-1.14194 6.72675,-2.39662 3.43119,-1.62865 3.85959,-2.87594 1.59397,-4.64083 -0.48511,-0.3779 -1.53002,-1.30359 -2.32202,-2.05709 l -1.44,-1.37001 -3.02326,-0.0431 c -3.55755,-0.0507 -4.13162,0.21459 -5.26589,2.43339 -0.90616,1.77257 -1.83066,2.82218 -2.74002,3.1108 -0.35796,0.11361 -0.65083,0.33058 -0.65083,0.48215 0,0.15157 -0.18308,0.46586 -0.40684,0.69843 -0.22376,0.23258 -1.00086,1.43086 -1.72688,2.66286 -1.68461,2.85865 -3.39723,4.27265 -5.42328,4.47766 -0.82954,0.0839 -1.73967,0.22606 -2.0225,0.31583 -0.33323,0.10576 -1.35295,-0.63809 -2.8968,-2.11311 -2.31721,-2.2139 -2.81328,-2.83361 -3.51251,-4.38792 -0.18496,-0.41114 -0.89219,-1.28164 -1.57162,-1.93444 -1.53985,-1.47949 -2.27957,-2.87985 -2.27957,-4.31546 0,-0.61008 -0.1427,-1.15723 -0.31712,-1.21589 -0.29693,-0.0999 -0.44268,-1.58265 -0.7602,-7.73404 -0.0712,-1.37906 -0.28991,-2.66786 -0.48605,-2.864 -0.45806,-0.45806 -0.45799,-2.17101 1.2e-4,-3.3278 0.19621,-0.49546 0.54532,-1.54883 0.77581,-2.34083 0.77999,-2.68023 1.98965,-5.78355 2.46865,-6.33317 0.26211,-0.30076 0.73318,-1.33883 1.04682,-2.30683 0.31363,-0.968 1.17636,-2.768 1.91716,-4 0.74081,-1.232 1.51458,-2.75793 1.7195,-3.39096 0.20492,-0.63303 0.80069,-1.82603 1.32394,-2.65112 0.52325,-0.82508 0.95137,-1.70265 0.95137,-1.95015 0,-0.2475 0.14635,-0.54045 0.32522,-0.651 0.17887,-0.11054 0.25268,-0.31837 0.16402,-0.46183 -0.19929,-0.32245 0.43882,-3.89562 0.77414,-4.33494 0.13434,-0.176 0.41714,-1.04 0.62844,-1.92 0.21131,-0.88 0.65848,-2.176 0.99372,-2.88 0.44753,-0.93982 0.65171,-2.25802 0.7683,-4.96 0.0873,-2.024 0.24027,-4.64144 0.33988,-5.81654 0.11103,-1.31 0.0544,-2.21482 -0.14632,-2.33888 -0.18007,-0.11129 -0.3274,-0.62585 -0.3274,-1.14347 0,-0.51761 -0.14756,-0.94111 -0.32792,-0.94111 -0.18036,0 -0.46801,-0.324 -0.63924,-0.72 -0.67853,-1.56929 -1.90318,-3.12 -2.46396,-3.12 -0.22488,0 -0.4134,-0.18 -0.41893,-0.4 -0.0159,-0.63276 -1.53609,-1.58022 -2.19823,-1.37007 -0.38344,0.1217 -0.66745,0.003 -0.79652,-0.33359 -0.11354,-0.29589 -0.40433,-0.44456 -0.67005,-0.34259 -0.25821,0.0991 -0.94103,-0.0169 -1.51739,-0.25771 -0.57636,-0.24081 -1.44389,-0.36215 -1.92784,-0.26964 -0.68745,0.13142 -0.87992,0.0463 -0.87992,-0.38909 0,-0.46283 -0.1763,-0.51813 -1.04,-0.3262 -0.572,0.12711 -1.22,0.22191 -1.44,0.21067 -0.22,-0.0112 -1.516,-0.008 -2.88,0.007 -6.76953,0.0746 -9.60471,0.21575 -10.48,0.52177 -0.528,0.18459 -1.536,0.51191 -2.24,0.72735 -0.704,0.21545 -1.75301,0.80358 -2.33114,1.30697 -0.57812,0.50339 -1.15412,0.93251 -1.28,0.95361 -1.14801,0.19243 -4.61442,0.11444 -4.75122,-0.10689 -0.0995,-0.16104 -0.33438,-0.15415 -0.54613,0.016 -0.46352,0.37254 -2.43361,0.83536 -3.13771,0.73713 -0.28941,-0.0404 -1.2176,0.36506 -2.06265,0.90097 -0.84505,0.53592 -1.9479,0.97439 -2.45078,0.97439 -0.50288,0 -1.44411,0.36 -2.09163,0.8 -0.64752,0.44 -1.33478,0.8 -1.52724,0.8 -0.19247,0 -0.68888,0.36079 -1.10314,0.80175 -0.41427,0.44096 -1.55537,1.04627 -2.53578,1.34513 -0.98042,0.29886 -2.74692,1.16208 -3.92555,1.91825 -1.17863,0.75618 -2.50875,1.37487 -2.95581,1.37487 -0.78528,0 -2.4958,1.59714 -10.49518,9.7995 -1.00868,1.03428 -2.304676,2.31695 -2.879996,2.85038 -1.66971,1.54814 -5.56047,5.741 -6.12052,6.59573 -0.28188,0.43021 -0.58328,1.33486 -0.66976,2.01033 -0.0865,0.67547 -0.38796,1.58026 -0.66996,2.01065 -0.48835,0.74531 -0.8047,1.1367 -2.40331,2.97341 -1.15753,1.32993 -1.49747,2.01629 -1.71073,3.45397 -0.2069,1.39491 -0.73145,2.60029 -1.31176,3.01436 -0.176,0.12558 -0.338,0.37758 -0.36,0.56 -0.022,0.18242 -0.0714,0.36767 -0.10984,0.41167 -0.1797,0.20585 -0.40581,3.1387 -0.36141,4.68781 0.0495,1.72794 0.87291,4.83219 1.28171,4.83219 0.26089,0 0.98954,2.61787 0.98954,3.55519 0,0.36631 0.26845,1.04824 0.59656,1.51541 0.32811,0.46717 0.78958,1.4254 1.0255,2.1294 0.23592,0.704 0.66416,1.568 0.95166,1.92 0.28748,0.352 0.71643,1.12963 0.95322,1.72806 0.23679,0.59844 0.87209,1.55764 1.41179,2.13155 1.51944,1.61576 1.79445,2.0027 2.15162,3.02727 0.18274,0.52422 0.44656,0.95312 0.58626,0.95312 0.1397,0 0.33988,0.34215 0.44484,0.76033 0.22897,0.91231 1.63005,2.44809 4.10627,4.5011 1.005246,0.83343 2.344946,2.29457 2.977106,3.24695 0.63216,0.95239 1.28568,1.73162 1.45227,1.73162 0.1666,0 0.3029,0.22629 0.3029,0.50286 0,0.55559 0.74159,1.41714 1.21982,1.41714 0.16805,0 0.39791,0.252 0.51082,0.56 0.11291,0.308 0.43215,0.96975 0.70943,1.47057 0.59917,1.08219 7.42286,7.97325 9.24467,9.33594 0.7011,0.52442 1.55209,1.2037 1.89106,1.50951 0.33898,0.30581 1.09669,0.64613 1.6838,0.75627 0.58711,0.11015 1.14638,0.32794 1.24282,0.48399 0.0964,0.15604 0.46834,0.28372 0.82642,0.28372 0.36787,0 0.71944,0.26142 0.80824,0.60099 0.0864,0.33055 0.50496,0.75946 0.93004,0.95314 0.42508,0.19368 0.77288,0.49232 0.77288,0.66364 0,0.17132 0.684,0.77114 1.52,1.33295 0.836,0.56181 2.0712,1.64872 2.7449,2.41537 0.67369,0.76665 1.36387,1.39391 1.53373,1.39391 0.16986,0 1.07174,0.576 2.00418,1.28 0.98991,0.74739 2.04942,1.28 2.54627,1.28 0.468,0 0.85092,0.144 0.85092,0.32 0,0.176 0.3515,0.32 0.78111,0.32 0.42962,0 0.87147,0.14618 0.98189,0.32485 0.11042,0.17866 0.65892,0.52883 1.21888,0.77815 0.90571,0.40326 1.73842,1.06641 4.30478,3.42825 1.51281,1.39224 4.31104,1.8456 6.11317,0.99044 z m 105.43589,-8.56169 c 0.10131,-0.264 0.40471,-0.48 0.67424,-0.48 0.26952,0 0.49004,-0.13283 0.49004,-0.29518 0,-0.16235 0.54,-0.46984 1.2,-0.68331 3.34306,-1.08126 4.44469,-2.15009 4.10151,-3.97939 -0.15389,-0.8203 -0.38802,-1.08699 -1.06848,-1.21706 -0.47927,-0.0916 -0.94377,-0.0573 -1.03221,0.0763 -0.48884,0.73822 -1.74802,1.00292 -3.80615,0.80012 -2.21491,-0.21826 -2.98376,-0.0266 -4.00972,0.99931 -1.07644,1.07644 -0.30445,4.14865 1.22951,4.89298 0.99184,0.48127 2.013,0.42899 2.22126,-0.11374 z m -12.14577,-18.76901 c 0.74273,-1.35088 0.52264,-2.55332 -0.66962,-3.65826 -0.8133,-0.75374 -2.14502,-1.00017 -2.85243,-0.52783 -1.73954,1.16153 -1.17728,5.07842 0.8321,5.79666 1.0272,0.36716 1.88492,-0.14639 2.68995,-1.61057 z m -47.60825,-31.83167 c 0.55094,-0.22875 1.37039,-0.85406 1.82099,-1.38957 0.73176,-0.86964 0.80461,-1.18713 0.68188,-2.97171 -0.0756,-1.09892 -0.17502,-3.61797 -0.22099,-5.59789 -0.046,-1.97991 -0.17099,-3.59991 -0.27783,-3.6 -0.38269,-3e-4 -0.77889,-6.55003 -0.55244,-9.13274 0.12703,-1.44874 0.12097,-3.04533 -0.0135,-3.54796 -0.13443,-0.50264 -0.11253,-1.63514 0.0487,-2.51667 0.16119,-0.88153 0.19714,-2.25078 0.0799,-3.04278 -0.11726,-0.792 -0.18691,-3.096 -0.1548,-5.12 0.12372,-7.79653 0.0248,-11.2 -0.32557,-11.2 -0.14746,0 -0.19705,-0.27175 -0.1102,-0.60388 0.21305,-0.8147 -0.3199,-1.08169 -1.28312,-0.64282 -0.60748,0.27678 -0.84294,0.69277 -1.00542,1.7763 -0.1167,0.77819 -0.42029,1.91297 -0.67466,2.52175 -0.47192,1.12947 -0.33153,3.50919 0.2274,3.85463 0.52562,0.32485 0.27666,1.51533 -0.5411,2.58745 -0.69767,0.9147 -0.78817,1.27979 -0.61068,2.46341 0.15998,1.0668 0.0472,1.74347 -0.48572,2.91321 -0.66346,1.45638 -0.67182,1.59176 -0.18931,3.06692 0.56251,1.71979 0.68024,5.27682 0.18478,5.58303 -0.176,0.10877 -0.32327,1.37727 -0.32726,2.81889 -0.004,1.44161 -0.16656,4.42111 -0.36126,6.62111 -0.1947,2.2 -0.37383,4.88076 -0.39807,5.95724 -0.0242,1.07648 -0.2292,2.1803 -0.45546,2.45294 -0.22627,0.27263 -0.46583,1.22681 -0.53236,2.12038 -0.0665,0.89358 -0.21274,1.91386 -0.32491,2.26729 -0.2862,0.90173 0.8562,2.38803 2.14528,2.79107 1.12057,0.35036 2.03643,0.24274 3.65574,-0.4296 z m 0.94903,-81.644216 c 0.39214,-0.262864 0.83923,-1.699168 0.94483,-3.035344 0.11998,-1.517981 1.71176,-4.306391 3.36017,-5.88617 0.87765,-0.841107 1.58741,-1.811625 1.5913,-2.175945 0.0115,-1.081194 1.11155,-3.147709 2.26857,-4.261866 1.89933,-1.828963 2.16106,-2.240253 2.94117,-4.621939 0.59923,-1.829427 0.73584,-2.817965 0.63209,-4.573837 -0.20326,-3.440045 -0.2053,-4.33369 -0.0143,-6.289418 0.16309,-1.670288 0.0957,-1.923289 -0.87625,-3.290374 -0.62285,-0.876045 -0.98952,-1.723382 -0.89771,-2.074467 0.0854,-0.326432 -0.001,-0.690263 -0.19268,-0.808512 -0.19134,-0.11825 -0.34788,-0.634803 -0.34788,-1.147898 0,-0.709408 -0.22617,-1.049853 -0.94411,-1.421113 -0.5193,-0.268519 -1.21769,-0.488218 -1.55203,-0.488218 -1.06957,0 -3.77425,2.283725 -7.67787,6.482883 -0.57968,0.623571 -1.5507,1.472019 -2.15782,1.885443 -0.60711,0.413421 -1.10482,0.923508 -1.10602,1.13353 -0.001,0.210019 -0.25669,0.570019 -0.56775,0.8 -0.91603,0.677261 -1.67444,2.084979 -1.67444,3.108 0,0.523805 -0.15091,1.045638 -0.33535,1.159632 -0.20593,0.127274 -0.25387,0.750618 -0.12422,1.6152 0.16429,1.095584 0.10455,1.448835 -0.26929,1.592291 -0.27191,0.104343 -0.41554,0.432448 -0.33093,0.755984 0.0822,0.314394 -0.0522,0.773312 -0.29871,1.019818 -0.29333,0.293337 -0.41646,0.994288 -0.35635,2.028784 0.0505,0.869328 -0.0541,1.756451 -0.23249,1.971382 -0.17838,0.214931 -0.347,0.959248 -0.3747,1.654042 -0.0378,0.948931 0.16183,1.515446 0.80246,2.276797 0.81849,0.972716 0.86702,1.584502 0.19533,2.462467 -0.15058,0.196819 -0.0645,0.611136 0.19949,0.96 0.25543,0.337561 0.46898,0.942265 0.47458,1.343789 0.006,0.401526 0.22957,0.814233 0.49772,0.917129 0.35529,0.136339 0.43619,0.460723 0.29827,1.195943 -0.14285,0.761446 -0.0189,1.203577 0.50543,1.80287 0.38208,0.43671 1.03551,1.195894 1.45206,1.687078 0.64879,0.765028 3.17217,2.461351 3.6567,2.458183 0.088,-6.4e-4 0.31783,-0.106839 0.51073,-0.236144 z"
       id="path837" />
  </g>
</svg>
